<svg xmlns="http://www.w3.org/2000/svg" width="24" height="24" viewBox="0 0 24 24" fill="currentColor"><g transform="translate(5.94 5.94)"><path d="M 12.124 0.9 C 12.124 0.403 11.721 0 11.224 0 L 1.574 0 C 1.077 0 0.674 0.403 0.674 0.9 C 0.674 1.397 1.077 1.8 1.574 1.8 L 9.051 1.8 L 0.264 10.587 C -0.088 10.939 -0.088 11.509 0.264 11.86 C 0.615 12.212 1.185 12.212 1.536 11.86 L 10.324 3.073 L 10.324 10.549 C 10.324 11.047 10.727 11.449 11.224 11.449 C 11.721 11.449 12.124 11.047 12.124 10.549 L 12.124 0.9 Z" fill-rule="evenodd"></path></g></svg>