<svg xmlns="http://www.w3.org/2000/svg" width="24" height="24" viewBox="0 0 24 24" fill="currentColor"><g transform="translate(2.6 4.1)"><path d="M 0.264 8.536 C -0.088 8.185 -0.088 7.615 0.264 7.264 L 7.264 0.264 C 7.615 -0.088 8.185 -0.088 8.536 0.264 C 8.888 0.615 8.888 1.185 8.536 1.536 L 3.073 7 L 17.9 7 C 18.397 7 18.8 7.403 18.8 7.9 C 18.8 8.397 18.397 8.8 17.9 8.8 L 3.073 8.8 L 8.536 14.264 C 8.888 14.615 8.888 15.185 8.536 15.536 C 8.185 15.888 7.615 15.888 7.264 15.536 L 0.264 8.536 Z" fill-rule="evenodd"></path></g></svg>