<svg xmlns="http://www.w3.org/2000/svg" width="19.800" height="19.800" viewBox="0 0 19.800 19.800" fill="none">
  <path d="M 0 9.9 C 0 4.432 4.432 0 9.9 0 C 15.368 0 19.8 4.432 19.8 9.9 C 19.8 15.368 15.368 19.8 9.9 19.8 C 4.432 19.8 0 15.368 0 9.9 Z M 7.036 5.764 C 6.685 5.412 6.115 5.412 5.764 5.764 C 5.412 6.115 5.412 6.685 5.764 7.036 L 8.627 9.9 L 5.764 12.764 C 5.412 13.115 5.412 13.685 5.764 14.036 C 6.115 14.388 6.685 14.388 7.036 14.036 L 9.9 11.173 L 12.763 14.036 C 13.115 14.388 13.685 14.388 14.036 14.036 C 14.388 13.685 14.388 13.115 14.036 12.764 L 11.173 9.9 L 14.036 7.036 C 14.388 6.685 14.388 6.115 14.036 5.764 C 13.685 5.412 13.115 5.412 12.763 5.764 L 9.9 8.627 L 7.036 5.764 Z" fill="currentColor" fill-rule="evenodd"></path>
</svg>