<svg xmlns="http://www.w3.org/2000/svg" width="20.100" height="20.100" viewBox="0 0 20.100 20.100" fill="none">
  <path d="M 8.3 0 C 3.716 0 0 3.716 0 8.3 C 0 12.884 3.716 16.6 8.3 16.6 C 10.123 16.6 11.809 16.012 13.178 15.016 L 17.881 19.719 C 18.389 20.227 19.212 20.227 19.719 19.719 C 20.227 19.212 20.227 18.388 19.719 17.881 L 15.016 13.178 C 16.012 11.808 16.6 10.123 16.6 8.3 C 16.6 3.716 12.884 0 8.3 0 Z M 2.6 8.3 C 2.6 5.152 5.152 2.6 8.3 2.6 C 11.448 2.6 14 5.152 14 8.3 C 14 11.448 11.448 14 8.3 14 C 5.152 14 2.6 11.448 2.6 8.3 Z" fill="currentColor" fill-rule="evenodd"></path>
</svg>