<svg xmlns="http://www.w3.org/2000/svg" width="24" height="24" viewBox="0 0 24 24" fill="currentColor">
  <circle cx="12" cy="12" r="4"/>
  <path fill-rule="evenodd" clip-rule="evenodd" d="M12 1a1 1 0 0 1 1 1v1.5a1 1 0 1 1-2 0V2a1 1 0 0 1 1-1Zm0 17.5a1 1 0 0 1 1 1V21a1 1 0 1 1-2 0v-1.5a1 1 0 0 1 1-1ZM23 12a1 1 0 0 1-1 1h-1.5a1 1 0 1 1 0-2H22a1 1 0 0 1 1 1ZM4.5 12a1 1 0 0 1-1 1H2a1 1 0 1 1 0-2h1.5a1 1 0 0 1 1 1Zm14.85-7.364a1 1 0 0 1 0 1.414l-1.06 1.06a1 1 0 1 1-1.415-1.414l1.06-1.06a1 1 0 0 1 1.415 0ZM7.125 16.875a1 1 0 0 1 0 1.414l-1.06 1.06a1 1 0 0 1-1.415-1.414l1.06-1.06a1 1 0 0 1 1.415 0Zm12.31 2.474a1 1 0 0 1-1.414 0l-1.06-1.06a1 1 0 0 1 1.414-1.415l1.06 1.06a1 1 0 0 1 0 1.415ZM7.125 7.125a1 1 0 0 1-1.415 0l-1.06-1.06a1 1 0 0 1 1.414-1.415l1.06 1.06a1 1 0 0 1 0 1.415Z"/>
</svg>
